<mxfile host="Electron" modified="2024-02-20T09:38:37.544Z" agent="Mozilla/5.0 (Macintosh; Intel Mac OS X 10_15_7) AppleWebKit/537.36 (KHTML, like Gecko) draw.io/23.1.5 Chrome/120.0.6099.109 Electron/28.1.0 Safari/537.36" etag="_RX2-eNwU-MyvYfk29VT" version="23.1.5" type="device" pages="3">
  <diagram name="bananen-chocolade" id="uVqLn6Fd8Br9dBt_fxyj">
    <mxGraphModel dx="954" dy="610" grid="1" gridSize="10" guides="1" tooltips="1" connect="1" arrows="1" fold="1" page="1" pageScale="1" pageWidth="827" pageHeight="1169" math="0" shadow="0">
      <root>
        <mxCell id="0" />
        <mxCell id="1" parent="0" />
        <mxCell id="CdGowpy9f_m-t5TMPZP0-2" value="" style="ellipse;whiteSpace=wrap;html=1;fillColor=none;" vertex="1" parent="1">
          <mxGeometry x="219" y="170" width="390" height="160" as="geometry" />
        </mxCell>
        <mxCell id="CdGowpy9f_m-t5TMPZP0-3" value="chocolade" style="ellipse;whiteSpace=wrap;html=1;fillColor=#f8cecc;strokeColor=#b85450;opacity=50;align=right;" vertex="1" parent="1">
          <mxGeometry x="370" y="210" width="160" height="80" as="geometry" />
        </mxCell>
        <mxCell id="CdGowpy9f_m-t5TMPZP0-1" value="banaan" style="ellipse;whiteSpace=wrap;html=1;fillColor=#fff2cc;strokeColor=#d6b656;opacity=60;align=left;" vertex="1" parent="1">
          <mxGeometry x="290" y="200" width="180" height="90" as="geometry" />
        </mxCell>
        <mxCell id="CdGowpy9f_m-t5TMPZP0-4" value="Alle mandjes" style="text;html=1;align=center;verticalAlign=middle;whiteSpace=wrap;rounded=0;" vertex="1" parent="1">
          <mxGeometry x="370" y="332" width="90" height="30" as="geometry" />
        </mxCell>
        <mxCell id="CdGowpy9f_m-t5TMPZP0-12" style="rounded=0;orthogonalLoop=1;jettySize=auto;html=1;" edge="1" parent="1" source="CdGowpy9f_m-t5TMPZP0-5" target="CdGowpy9f_m-t5TMPZP0-2">
          <mxGeometry relative="1" as="geometry" />
        </mxCell>
        <mxCell id="CdGowpy9f_m-t5TMPZP0-5" value="8051" style="text;html=1;align=center;verticalAlign=middle;whiteSpace=wrap;rounded=0;" vertex="1" parent="1">
          <mxGeometry x="500" y="340" width="60" height="30" as="geometry" />
        </mxCell>
        <mxCell id="CdGowpy9f_m-t5TMPZP0-13" style="rounded=0;orthogonalLoop=1;jettySize=auto;html=1;" edge="1" parent="1" source="CdGowpy9f_m-t5TMPZP0-6" target="CdGowpy9f_m-t5TMPZP0-1">
          <mxGeometry relative="1" as="geometry" />
        </mxCell>
        <mxCell id="CdGowpy9f_m-t5TMPZP0-6" value="905" style="text;html=1;align=center;verticalAlign=middle;whiteSpace=wrap;rounded=0;" vertex="1" parent="1">
          <mxGeometry x="240" y="130" width="60" height="30" as="geometry" />
        </mxCell>
        <mxCell id="CdGowpy9f_m-t5TMPZP0-15" style="rounded=0;orthogonalLoop=1;jettySize=auto;html=1;" edge="1" parent="1" source="CdGowpy9f_m-t5TMPZP0-7" target="CdGowpy9f_m-t5TMPZP0-3">
          <mxGeometry relative="1" as="geometry" />
        </mxCell>
        <mxCell id="CdGowpy9f_m-t5TMPZP0-7" value="750" style="text;html=1;align=center;verticalAlign=middle;whiteSpace=wrap;rounded=0;" vertex="1" parent="1">
          <mxGeometry x="510" y="130" width="60" height="30" as="geometry" />
        </mxCell>
        <mxCell id="CdGowpy9f_m-t5TMPZP0-17" style="rounded=0;orthogonalLoop=1;jettySize=auto;html=1;entryX=0.5;entryY=1;entryDx=0;entryDy=0;" edge="1" parent="1" source="CdGowpy9f_m-t5TMPZP0-8" target="CdGowpy9f_m-t5TMPZP0-16">
          <mxGeometry relative="1" as="geometry" />
        </mxCell>
        <mxCell id="CdGowpy9f_m-t5TMPZP0-8" value="653" style="text;html=1;align=center;verticalAlign=middle;whiteSpace=wrap;rounded=0;" vertex="1" parent="1">
          <mxGeometry x="384" y="130" width="60" height="30" as="geometry" />
        </mxCell>
        <mxCell id="CdGowpy9f_m-t5TMPZP0-16" value="" style="ellipse;whiteSpace=wrap;html=1;aspect=fixed;rotation=0;" vertex="1" parent="1">
          <mxGeometry x="414" y="241.5" width="2" height="2" as="geometry" />
        </mxCell>
      </root>
    </mxGraphModel>
  </diagram>
  <diagram name="als-banaan-dan-chocolade" id="mxBiFIFsAOXTvklFQTcD">
    <mxGraphModel dx="954" dy="610" grid="1" gridSize="10" guides="1" tooltips="1" connect="1" arrows="1" fold="1" page="1" pageScale="1" pageWidth="827" pageHeight="1169" math="0" shadow="0">
      <root>
        <mxCell id="P6SNPDhXtQo6X3-Boat4-0" />
        <mxCell id="P6SNPDhXtQo6X3-Boat4-1" parent="P6SNPDhXtQo6X3-Boat4-0" />
        <mxCell id="P6SNPDhXtQo6X3-Boat4-3" value="chocolade" style="ellipse;whiteSpace=wrap;html=1;opacity=50;align=center;strokeWidth=1;dashed=1;fillColor=#f8cecc;strokeColor=#b85450;" vertex="1" parent="P6SNPDhXtQo6X3-Boat4-1">
          <mxGeometry x="350" y="210" width="160" height="80" as="geometry" />
        </mxCell>
        <mxCell id="P6SNPDhXtQo6X3-Boat4-4" value="banaan" style="ellipse;whiteSpace=wrap;html=1;fillColor=#fff2cc;strokeColor=#d6b656;opacity=60;align=left;fixDash=0;container=0;comic=0;" vertex="1" parent="P6SNPDhXtQo6X3-Boat4-1">
          <mxGeometry x="290" y="200" width="180" height="90" as="geometry" />
        </mxCell>
        <mxCell id="P6SNPDhXtQo6X3-Boat4-8" style="rounded=0;orthogonalLoop=1;jettySize=auto;html=1;" edge="1" parent="P6SNPDhXtQo6X3-Boat4-1" source="P6SNPDhXtQo6X3-Boat4-9" target="P6SNPDhXtQo6X3-Boat4-4">
          <mxGeometry relative="1" as="geometry" />
        </mxCell>
        <mxCell id="P6SNPDhXtQo6X3-Boat4-9" value="905" style="text;html=1;align=center;verticalAlign=middle;whiteSpace=wrap;rounded=0;" vertex="1" parent="P6SNPDhXtQo6X3-Boat4-1">
          <mxGeometry x="270" y="160" width="60" height="30" as="geometry" />
        </mxCell>
        <mxCell id="P6SNPDhXtQo6X3-Boat4-12" style="rounded=0;orthogonalLoop=1;jettySize=auto;html=1;entryX=0.5;entryY=1;entryDx=0;entryDy=0;" edge="1" parent="P6SNPDhXtQo6X3-Boat4-1" source="P6SNPDhXtQo6X3-Boat4-13" target="P6SNPDhXtQo6X3-Boat4-14">
          <mxGeometry relative="1" as="geometry" />
        </mxCell>
        <mxCell id="P6SNPDhXtQo6X3-Boat4-13" value="653" style="text;html=1;align=center;verticalAlign=middle;whiteSpace=wrap;rounded=0;" vertex="1" parent="P6SNPDhXtQo6X3-Boat4-1">
          <mxGeometry x="383" y="160" width="60" height="30" as="geometry" />
        </mxCell>
        <mxCell id="P6SNPDhXtQo6X3-Boat4-14" value="" style="ellipse;whiteSpace=wrap;html=1;aspect=fixed;rotation=0;" vertex="1" parent="P6SNPDhXtQo6X3-Boat4-1">
          <mxGeometry x="412" y="230" width="2" height="2" as="geometry" />
        </mxCell>
      </root>
    </mxGraphModel>
  </diagram>
  <diagram id="c1PKnL5FBCqqEVdXnsbW" name="Pagina-2">
    <mxGraphModel dx="954" dy="610" grid="1" gridSize="10" guides="1" tooltips="1" connect="1" arrows="1" fold="1" page="1" pageScale="1" pageWidth="827" pageHeight="1169" math="0" shadow="0">
      <root>
        <mxCell id="0" />
        <mxCell id="1" parent="0" />
      </root>
    </mxGraphModel>
  </diagram>
</mxfile>
